<svg width="46" height="43" viewBox="0 0 46 43" fill="none" xmlns="http://www.w3.org/2000/svg">
<path d="M0 29.4552C0.617093 15.9807 5.88972 7.6226 14.654 1.23295C15.4948 0.63075 16.4573 0.22013 17.4739 0.0300058C17.8298 -0.0283149 18.1946 -0.00136372 18.5381 0.108624C18.8817 0.218612 19.1942 0.408498 19.4501 0.662719C19.5714 1.00702 19.6105 1.37489 19.5644 1.73699C19.5183 2.09909 19.3882 2.44541 19.1845 2.74835C18.4213 3.63464 17.5501 4.4219 16.5912 5.09174C11.6388 8.9349 9.48292 14.3013 8.72522 20.2535C8.15499 24.7137 10.7093 28.1116 13.951 30.5878C17.6848 33.4311 17.0755 35.8839 11.7013 40.969C8.75646 43.742 5.88971 43.4843 3.76504 39.5786C1.72629 35.8214 0.734262 31.5096 0 29.4552Z" fill="#9C7C57"/>
<path d="M25.5586 29.4552C26.1757 15.9807 31.4483 7.6226 40.2126 1.23295C41.0534 0.63075 42.0159 0.22013 43.0325 0.0300058C43.3884 -0.0283149 43.7532 -0.00136372 44.0967 0.108624C44.4403 0.218612 44.7528 0.408498 45.0087 0.662719C45.1299 1.00702 45.1691 1.37489 45.123 1.73699C45.0768 2.09909 44.9468 2.44541 44.7431 2.74835C43.9799 3.63464 43.1086 4.4219 42.1498 5.09174C37.1974 8.9349 35.0415 14.3013 34.2838 20.2535C33.7136 24.7137 36.2679 28.1116 39.5096 30.5878C43.2434 33.4311 42.6341 35.8839 37.2599 40.969C34.3151 43.742 31.4483 43.4843 29.3236 39.5786C27.2849 35.8214 26.2929 31.5096 25.5586 29.4552Z" fill="#9C7C57"/>
</svg>
